<svg xmlns="http://www.w3.org/2000/svg" xmlns:xlink="http://www.w3.org/1999/xlink" version="1.1" x="0px" y="0px" viewBox="0 0 500 625" enable-background="new 0 0 500 500" xml:space="preserve"><g><g><g><g><path d="M60.5,253c75.7,0.3,146.1,48.2,172.3,119.6c7.6,20.6,11.4,42.2,11.5,64.1c0,12.9,20,12.9,20,0      c-0.1-41.9-13-83.5-37.4-117.7c-24.1-33.6-57.5-59.3-96.3-73.7c-22.3-8.3-46.3-12.3-70.1-12.4C47.6,232.9,47.6,252.9,60.5,253      L60.5,253z"/></g></g><g><g><path d="M60.5,161.6c57.6,0.1,113.9,17.7,161.2,50.6c45.4,31.5,81.4,77,101.4,128.6c11.9,30.7,18.3,63.1,19.1,96      c0.3,12.8,20.3,12.9,20,0c-1.5-61.2-21.4-121.4-57.6-170.8c-35.6-48.6-84.8-85.8-141.4-106.4c-32.8-12-67.8-17.9-102.7-18      C47.6,141.5,47.6,161.5,60.5,161.6L60.5,161.6z"/></g></g><g><g><path d="M60.5,68C137,68.2,211.8,92,274.2,136.2c60.1,42.6,107.1,103.9,132.4,173.1      c14.9,40.8,22.5,83.9,22.6,127.4c0,12.9,20,12.9,20,0c-0.1-80.2-25-159.6-71.7-224.9C332,148.1,268,99,194.5,71.8      C151.7,56,106.1,48.1,60.5,48C47.6,48,47.6,68,60.5,68L60.5,68z"/></g></g></g><g><g><path d="M140.5,397.1c-0.2,14.4-9.1,27.9-22.9,32.8c-14,5-30,0.7-39.4-11c-9.1-11.3-10-27.4-2.6-39.8     c7.3-12.2,22.1-19.2,36.2-16.4C128.4,366.1,140.2,380.2,140.5,397.1c0.2,12.9,20.2,12.9,20,0c-0.4-23.2-14.6-43.5-36.3-51.7     c-21-7.9-46.2-1-60.5,16.2c-14.8,17.8-17.3,43.5-5.3,63.6c12,20,35.3,29.9,58.1,25.7c25.6-4.7,43.7-28.3,44.1-53.8     C160.7,384.3,140.7,384.3,140.5,397.1z"/></g></g></g><text x="0" y="515" fill="#000000" font-size="5px" font-weight="bold" font-family="'Helvetica Neue', Helvetica, Arial-Unicode, Arial, Sans-serif">Created by Neha Tyagi</text><text x="0" y="520" fill="#000000" font-size="5px" font-weight="bold" font-family="'Helvetica Neue', Helvetica, Arial-Unicode, Arial, Sans-serif">from the Noun Project</text></svg>