<svg xmlns="http://www.w3.org/2000/svg" viewBox="0 0 512 640" x="0px" y="0px"><title>Miscelanea1</title><g data-name="Capa 3"><path d="M410.74,238.85h0a4.5,4.5,0,0,0-4.5,4.46L404.49,420h-102l-.22-103.55c0-19.28-23.2-34.81-42.42-34.81s-42.41,15.53-42.41,34.8L217.24,420H110.75l.52-176.63a4.5,4.5,0,0,0-4.49-4.51h0a4.5,4.5,0,0,0-4.5,4.49l-.53,181.14a4.54,4.54,0,0,0,1.31,3.19,4.49,4.49,0,0,0,3.19,1.32H221.73a4.5,4.5,0,0,0,4.5-4.49l.23-108.06c0-13.66,18.69-25.81,33.41-25.81s33.42,12.15,33.42,25.82l.23,108.05A4.5,4.5,0,0,0,298,429H409a4.5,4.5,0,0,0,4.5-4.46l1.75-181.14A4.5,4.5,0,0,0,410.74,238.85Z"/><path d="M449.34,227.06,258.7,83.91a4.5,4.5,0,0,0-5.4,0L62.66,227.06a4.5,4.5,0,1,0,5.4,7.2L256,93.14,443.94,234.26a4.5,4.5,0,1,0,5.4-7.2Z"/></g><text x="0" y="527" fill="#000000" font-size="5px" font-weight="bold" font-family="'Helvetica Neue', Helvetica, Arial-Unicode, Arial, Sans-serif">Created by antonio bartolo</text><text x="0" y="532" fill="#000000" font-size="5px" font-weight="bold" font-family="'Helvetica Neue', Helvetica, Arial-Unicode, Arial, Sans-serif">from the Noun Project</text></svg>